<?xml version="1.0" standalone="no"?>
<!DOCTYPE svg PUBLIC "-//W3C//DTD SVG 1.1//EN" "http://www.w3.org/Graphics/SVG/1.1/DTD/svg11.dtd" >
<svg xmlns="http://www.w3.org/2000/svg">
<metadata>
Created by FontPrep 20130207 at Sat Jun 24 16:59:21 2017
 By Marrrk
Copyright (c) 2012, LatinoType (www.latinotype.com), with Reserved Font Name 'Julius'
</metadata>
<defs>
<font id="7f14d6694f0df98bd79a1ed1a128399d" horiz-adv-x='1024' >
  <font-face 
    font-family="JuliusSansOne-Regular"
    font-weight="400"
    font-stretch="normal"
    units-per-em="2048"
    panose-1="2 0 0 0 0 0 0 0 0 0"
    ascent="1638"
    descent="-410"
    x-height="1329"
    cap-height="1464"
    bbox="-90 -467 3009 1767"
    underline-thickness="102"
    underline-position="-102"
    unicode-range="U+0020-FB02"
  />
<missing-glyph horiz-adv-x="532" 
 />
    <glyph glyph-name=".notdef" horiz-adv-x="532" 
 />
    <glyph glyph-name=".null" horiz-adv-x="0" 
 />
    <glyph glyph-name="nonmarkingreturn" horiz-adv-x="681" 
 />
    <glyph glyph-name="space" unicode=" " horiz-adv-x="737" 
 />
    <glyph glyph-name="exclam" unicode="!" horiz-adv-x="581" 
d="M254 307l-10 1024h94l-10 -1024h-74zM225 41q0 29 18.5 47t47 18t47 -18t18.5 -47t-18.5 -47.5t-47 -18.5t-47 18.5t-18.5 47.5z" />
    <glyph glyph-name="quotedbl" unicode="&#x22;" horiz-adv-x="464" 
d="M315 1161l-16 303h92l-16 -303h-60zM90 1161l-16 303h92l-16 -303h-60z" />
    <glyph glyph-name="numbersign" unicode="#" horiz-adv-x="1323" 
d="M479 977l-80 -455h447l80 455h-447zM70 446v76h239l80 455h-225v76h237l76 424l88 -13l-73 -411h446l76 424l88 -13l-74 -411h225v-76h-237l-80 -455h225v-76h-239l-82 -469l-88 11l79 458h-446l-82 -469l-88 11l80 458h-225z" />
    <glyph glyph-name="dollar" unicode="$" horiz-adv-x="1120" 
d="M307 1184.5q0 -99.5 56.5 -173t158.5 -147.5l51 535q-122 -2 -194 -58.5t-72 -156zM854 324.5q0 115.5 -68.5 192.5t-199.5 171l-62 -622q148 2 239 72.5t91 186zM199 1180.5q0 138.5 107.5 223.5t271.5 85h4l22 219h82l-22 -223q156 -16 274 -70l-35 -80
q-106 45 -248 60l-57 -584q186 -129 248 -193q117 -123 117 -266q0 -186 -125 -281.5t-324 -95.5l-18 -198h-82l20 203q-197 20 -317 108l49 74q115 -76 276 -94l68 675q-150 107 -230.5 203t-80.5 234.5z" />
    <glyph glyph-name="percent" unicode="%" horiz-adv-x="1536" 
d="M913 346q0 -137 57.5 -215t142.5 -78t140.5 78t55.5 215t-55.5 214t-140.5 77t-142.5 -77t-57.5 -214zM829 346q0 168 79 264.5t204 96.5t203 -96.5t78 -264.5t-82 -269.5t-200 -101.5t-200 101.5t-82 269.5zM227 1128.5q0 -137.5 57.5 -215t142.5 -77.5t140.5 77.5
t55.5 215t-55.5 214t-140.5 76.5t-142.5 -76.5t-57.5 -214zM143 1128.5q0 167.5 79 264t204 96.5t203 -96.5t78 -264t-82 -269t-200 -101.5t-200 101.5t-82 269zM266 -2l936 1501l72 -43l-934 -1499z" />
    <glyph glyph-name="ampersand" unicode="&#x26;" horiz-adv-x="1349" 
d="M877 1165q0 102 -67 159.5t-187 57.5q-274 0 -275 -217q0 -57 36 -123.5t77 -112.5t114 -120q302 198 302 356zM598 57q207 0 399 166l-436 467q-303 -184 -303 -368q0 -125 88 -195t252 -70zM1145 563h80q-4 -190 -109 -334l213 -229h-123l-149 162q-98 -86 -225 -135.5
t-246 -49.5q-199 0 -310.5 83t-111.5 232.5t88 253t248 212.5q-244 262 -244 403.5t92 222t268.5 80.5t264.5 -83t88 -198.5t-88 -218t-244 -223.5l424 -452q35 41 59.5 124.5t24.5 149.5z" />
    <glyph glyph-name="quotesingle" unicode="'" horiz-adv-x="239" 
d="M90 1161l-16 303h92l-16 -303h-60z" />
    <glyph glyph-name="parenleft" unicode="(" horiz-adv-x="657" 
d="M184 547q0 303 106.5 540.5t272.5 372.5l53 -57q-139 -131 -232 -361.5t-93 -494.5t93 -494.5t232 -361.5l-53 -58q-166 135 -272.5 373t-106.5 541z" />
    <glyph glyph-name="parenright" unicode=")" horiz-adv-x="657" 
d="M473 547q0 -303 -106.5 -540.5t-272.5 -373.5l-53 58q139 131 232.5 361.5t93.5 494.5t-93.5 494.5t-232.5 361.5l53 57q166 -135 272.5 -372.5t106.5 -540.5z" />
    <glyph glyph-name="asterisk" unicode="*" horiz-adv-x="884" 
d="M487 827h-90v240l-207 -121l-45 78l209 121l-211 123l45 78l209 -123v241h90v-243l209 122l45 -75l-211 -123l209 -121l-45 -78l-207 121v-240z" />
    <glyph glyph-name="plus" unicode="+" horiz-adv-x="1011" 
d="M465 342v322h-322v81h322v322h82v-322h321v-81h-321v-322h-82z" />
    <glyph glyph-name="comma" unicode="," horiz-adv-x="231" 
d="M61 109h109v-101l-86 -158h-47l24 125v134z" />
    <glyph glyph-name="hyphen" unicode="-" horiz-adv-x="1011" 
d="M143 745h725v-81h-725v81z" />
    <glyph glyph-name="period" unicode="." horiz-adv-x="231" 
d="M61 0v109h109v-109h-109z" />
    <glyph glyph-name="slash" unicode="/" horiz-adv-x="757" 
d="M20 4l637 1479l80 -31l-637 -1479z" />
    <glyph glyph-name="zero" unicode="0" horiz-adv-x="1341" 
d="M270 733.5q0 -317.5 106.5 -492.5t296 -175t294 175t104.5 492.5t-104.5 491.5t-294 174t-296 -174t-106.5 -491.5zM164 736.5q0 353.5 134 553t373.5 199.5t373 -199.5t133.5 -553t-139.5 -557.5t-367 -204t-367.5 204t-140 557.5z" />
    <glyph glyph-name="one" unicode="1" horiz-adv-x="651" 
d="M381 1464v-1464h-98v1339l-232 -122l-35 63l303 184h62z" />
    <glyph glyph-name="two" unicode="2" horiz-adv-x="1269" 
d="M143 0v80q360 301 573.5 565t213.5 442.5t-85 245t-257 66.5t-352 -64l-25 82q201 72 392.5 72t312 -92t120.5 -296t-200.5 -466t-538.5 -551h817v-84h-971z" />
    <glyph glyph-name="three" unicode="3" horiz-adv-x="1200" 
d="M552 1491q171 0 277.5 -81t106.5 -202t-79 -219t-189 -158q152 -41 250 -138t98 -251q0 -203 -151.5 -338t-366.5 -135t-387 86l32 76q139 -72 336 -72t313.5 107.5t116.5 275.5q0 109 -79.5 189t-184 114.5t-205.5 34.5h-12v70q150 8 276.5 117.5t126.5 230.5
q0 90 -76.5 146.5t-226 56.5t-325.5 -62l-23 76q201 76 372 76z" />
    <glyph glyph-name="four" unicode="4" horiz-adv-x="1122" 
d="M754 561v744l-574 -744h574zM754 0v471h-684v76l712 930h70v-916h233v-90h-233v-471h-98z" />
    <glyph glyph-name="five" unicode="5" horiz-adv-x="1148" 
d="M934 1464v-82h-567l-25 -327q618 -131 619 -594q0 -190 -130.5 -338t-373.5 -148q-190 0 -326 68l33 80q143 -57 327.5 -57t278.5 135q84 117 84 260q0 420 -616 516l41 487h655z" />
    <glyph glyph-name="six" unicode="6" horiz-adv-x="1236" 
d="M270 545q0 -252 102.5 -365.5t259 -113.5t257 110.5t100.5 264t-84 250.5t-224 97t-292 -73l-27 63q176 92 353.5 92t278 -119.5t100.5 -307t-133 -328t-325 -140.5t-323 119q-150 133 -149 451q0 152 43 290t102.5 233t152.5 188.5t161.5 145.5t160.5 114l43 -66
q-106 -70 -188 -140.5t-174 -183.5q-195 -235 -195 -581z" />
    <glyph glyph-name="seven" unicode="7" horiz-adv-x="1042" 
d="M143 1374v90h832v-69l-588 -1395h-108l581 1374h-717z" />
    <glyph glyph-name="eight" unicode="8" horiz-adv-x="1187" 
d="M617 1399q-128 0 -203.5 -67.5t-75.5 -170t65.5 -166t194.5 -137.5q137 78 206.5 146.5t69.5 166t-64.5 163t-192.5 65.5zM930 368q0 126 -110 218t-236 164q-244 -139 -301 -269q-25 -59 -25 -129q0 -143 95.5 -214.5t248 -71.5t240.5 88t88 214zM621 1489
q170 0 261 -93t91 -218t-74 -207t-213 -164q164 -96 257 -194.5t93 -231.5q0 -172 -121.5 -289t-313 -117t-320.5 97.5t-129 264.5t91 267.5t255 196.5q-123 76 -190.5 156.5t-67.5 189.5q0 151 105.5 246.5t275.5 95.5z" />
    <glyph glyph-name="nine" unicode="9" horiz-adv-x="1236" 
d="M967 920q0 252 -102.5 365.5t-259 113.5t-257 -110.5t-100.5 -264.5t84 -255t224 -101t292 73l26 -63q-176 -92 -353 -92t-277.5 122.5t-100.5 311t133.5 329t325.5 140.5t322 -117q150 -135 149 -452q0 -152 -43 -290t-102.5 -233.5t-152.5 -188.5t-161.5 -145.5
t-160.5 -113.5l-43 65q106 70 188 140.5t174 181.5q195 238 195 584z" />
    <glyph glyph-name="colon" unicode=":" horiz-adv-x="436" 
d="M164 270v109h108v-109h-108zM164 911v109h108v-109h-108z" />
    <glyph glyph-name="semicolon" unicode=";" horiz-adv-x="436" 
d="M164 379h108v-100l-86 -158h-47l25 125v133zM164 911v109h108v-109h-108z" />
    <glyph glyph-name="less" unicode="&#x3c;" horiz-adv-x="839" 
d="M670 256l-609 422l609 422l39 -56l-533 -366l533 -367z" />
    <glyph glyph-name="equal" unicode="=" horiz-adv-x="1112" 
d="M143 559h826v-82h-826v82zM143 977h826v-82h-826v82z" />
    <glyph glyph-name="greater" unicode="&#x3e;" horiz-adv-x="839" 
d="M778 678l-608 -422l-39 55l533 367l-533 366l39 56z" />
    <glyph glyph-name="question" unicode="?" horiz-adv-x="970" 
d="M322 41q0 29 19 47t46 18t46.5 -18t19.5 -47t-19.5 -47.5t-46.5 -18.5t-46 18.5t-19 47.5zM424 340h-78q0 119 44 218t107.5 167t125.5 131q152 150 151.5 283t-87.5 199.5t-250 66.5t-298 -90l-37 61q61 49 159.5 79t199.5 30q180 0 293.5 -87t113.5 -251t-155 -320
q-66 -66 -131.5 -132t-111.5 -158.5t-46 -196.5z" />
    <glyph glyph-name="at" unicode="@" horiz-adv-x="1865" 
d="M833.5 -27q-284.5 0 -467 188.5t-182.5 479.5q0 348 250 602t586 254q283 0 472 -196.5t189 -479.5q0 -227 -82.5 -363t-228.5 -136q-90 0 -133 53t-72 149l-39 135h-426l-170 -321h-77l503 938h54l221 -719q27 -82 47 -117q33 -59 104 -59q111 0 170.5 116.5t59.5 315.5
q0 262 -171 440.5t-433 178.5q-199 0 -373 -109t-277.5 -291t-103.5 -389q0 -260 168 -433t423 -173t443 98l23 -51q-193 -111 -477.5 -111zM975 1178l-242 -459h375z" />
    <glyph glyph-name="A" unicode="A" horiz-adv-x="1357" 
d="M672 1311q-2 -1 -20 -57t-44 -117l-225 -545h586l-226 543q-71 156 -71 176zM348 508l-211 -508h-104l616 1475h58l618 -1475h-111l-210 508h-656z" />
    <glyph glyph-name="B" unicode="B" horiz-adv-x="1288" 
d="M607.5 1391q-115.5 0 -238.5 -9v-559h87q87 0 230 -12q92 49 157.5 141t65.5 204t-93 173.5t-208.5 61.5zM1028 371q0 129 -118 248.5t-190 119.5h-351v-653q90 -10 317 -10q150 0 246 83t96 212zM1008 1153q0 -117 -64.5 -217t-155.5 -152q145 -45 243.5 -155.5
t98.5 -247.5q0 -193 -121.5 -293t-333.5 -100t-405 16v1456q160 12 327 12.5t289 -81.5t122 -238z" />
    <glyph glyph-name="C" unicode="C" horiz-adv-x="1525" 
d="M963 -25q-319 0 -549 218.5t-230 539t201 538.5t514 218q246 0 498 -82l-27 -82q-246 74 -471 74q-268 0 -438 -192.5t-170 -471t197.5 -474t474.5 -195.5q242 0 417 73l31 -69q-78 -45 -203.5 -70t-244.5 -25z" />
    <glyph glyph-name="D" unicode="D" horiz-adv-x="1669" 
d="M692 1479q338 0 565.5 -210t227.5 -571q0 -182 -58.5 -322t-160.5 -224q-211 -170 -527 -170q-207 0 -469 22v1460q209 15 422 15zM739 72q289 0 464 156.5t175 472t-197.5 502t-488.5 186.5q-186 0 -323 -11v-1290q132 -16 370 -16z" />
    <glyph glyph-name="E" unicode="E" horiz-adv-x="1095" 
d="M270 0v1464h680v-86h-581v-538h526v-84h-526v-670h604v-86h-703z" />
    <glyph glyph-name="F" unicode="F" horiz-adv-x="1132" 
d="M270 0v1464h748v-86h-649v-538h594v-84h-594v-756h-99z" />
    <glyph glyph-name="G" unicode="G" horiz-adv-x="1683" 
d="M291 734.5q0 -279.5 192.5 -474t468.5 -194.5q238 0 396 65v602h98v-647q-178 -111 -498.5 -111t-542 220.5t-221.5 539t201 536.5t514 218q246 0 498 -82l-27 -82q-246 74 -471 74q-268 0 -438 -192.5t-170 -472z" />
    <glyph glyph-name="H" unicode="H" horiz-adv-x="1742" 
d="M1374 0v733h-1005v-733h-99v1464h99v-643h1005v643h99v-1464h-99z" />
    <glyph glyph-name="I" unicode="I" horiz-adv-x="638" 
d="M270 0v1464h99v-1464h-99z" />
    <glyph glyph-name="J" unicode="J" horiz-adv-x="638" 
d="M270 164v1300h99v-1235q0 -274 -115 -438q-57 -84 -116.5 -140.5t-145.5 -117.5l-43 64q321 235 321 567z" />
    <glyph glyph-name="K" unicode="K" horiz-adv-x="1269" 
d="M369 1464v-1464h-99v1464h99zM1151 1464l-623 -708q125 -150 288 -334t211 -227t75.5 -64.5t85 -47.5t123.5 -34l-2 -65q-212 3 -307 96.5t-294.5 322t-299.5 349.5l628 712h115z" />
    <glyph glyph-name="L" unicode="L" horiz-adv-x="1087" 
d="M270 0v1464h99v-1374h673v-90h-772z" />
    <glyph glyph-name="M" unicode="M" horiz-adv-x="1925" 
d="M963 76h-56l-428 1036q-37 86 -59 152l-21 -156l-168 -1108h-100l242 1477h57l457 -1086q35 -76 55 -143q6 23 64 141l510 1088h55l223 -1477h-102l-160 1112q-16 104 -16 158q-2 -2 -9.5 -19.5t-25 -57.5t-35.5 -83z" />
    <glyph glyph-name="N" unicode="N" horiz-adv-x="1792" 
d="M369 0h-99v1477h45l965 -1112q98 -117 152 -187q-8 98 -9 225v1061h99v-1476h-45l-983 1132q-102 117 -132 156l3 -45l4 -174v-1057z" />
    <glyph glyph-name="O" unicode="O" 
d="M291 733.5q0 -282.5 171 -475t442.5 -192.5t442.5 192.5t171 475t-171 474t-443.5 191.5t-442.5 -191.5t-170 -474zM184 733.5q0 319.5 204 537.5t515 218t516 -218t205 -537.5t-205 -539t-516 -219.5t-515 219.5t-204 539z" />
    <glyph glyph-name="P" unicode="P" horiz-adv-x="1189" 
d="M270 0v1456q170 16 330 17q215 0 345 -100.5t130 -302.5t-177 -332t-423 -130h-22v68h14q203 0 352.5 106.5t149.5 277.5t-104.5 247.5t-280.5 76.5q-92 0 -215 -8v-1376h-99z" />
    <glyph glyph-name="Q" unicode="Q" 
d="M291 733.5q0 -282.5 171 -475t441 -192.5q147 0 266 59q-256 174 -403 174q-92 0 -150 -33l-32 60q76 51 186.5 51t222 -53.5t256.5 -151.5q127 90 198 237.5t71 323.5q0 283 -171 474.5t-443.5 191.5t-442.5 -191.5t-170 -474zM184 733.5q0 319.5 204 537.5t515 218
t516 -218t205 -538q0 -188 -77 -349t-212 -265q421 -254 669 -339t466 -85q125 0 284.5 32.5t229.5 67.5l25 -57q-80 -41 -245 -80t-294 -39t-273.5 32t-248 66.5t-257 110.5t-220 114t-216.5 124q-162 -90 -352 -91q-311 0 -515 219.5t-204 539z" />
    <glyph glyph-name="R" unicode="R" horiz-adv-x="1347" 
d="M674 672q90 0 192.5 118.5t102.5 275.5t-105.5 237.5t-279.5 80.5q-92 0 -215 -8v-694q164 -10 305 -10zM270 0v1458q195 14 326 15q209 0 344 -108t135 -304q0 -133 -77.5 -248t-174.5 -182q76 -104 187.5 -248.5t144.5 -181.5q125 -133 283 -152l-2 -65
q-125 2 -203 37.5t-148.5 109.5t-351.5 459q-201 0 -364 12v-602h-99z" />
    <glyph glyph-name="S" unicode="S" horiz-adv-x="1120" 
d="M307 1178q0 -96 67.5 -179.5t164 -148t192.5 -132t164 -161.5t68 -205q0 -186 -125 -281.5t-345.5 -95.5t-375.5 113l49 74q147 -96 323.5 -96t270.5 70.5t94 203.5q0 92 -67.5 175t-164 149.5t-192.5 136t-163.5 166t-67.5 207.5q0 145 107.5 230t290.5 85t341 -74
l-35 -80q-150 63 -297 64q-299 0 -299 -221z" />
    <glyph glyph-name="T" unicode="T" horiz-adv-x="1179" 
d="M541 1378h-496v86h1090v-86h-496v-1378h-98v1378z" />
    <glyph glyph-name="U" unicode="U" horiz-adv-x="1652" 
d="M827.5 -25q-288.5 0 -431 168t-142.5 459v862h98v-862q0 -541 474 -541t474 541v862h99v-862q0 -293 -141.5 -460t-430 -167z" />
    <glyph glyph-name="V" unicode="V" horiz-adv-x="1386" 
d="M758 297l491 1167h105l-631 -1476h-57l-633 1476h110l492 -1163q51 -125 63 -172q17 66 60 168z" />
    <glyph glyph-name="W" unicode="W" horiz-adv-x="2129" 
d="M649 354l424 1082h60l370 -1090q43 -129 58 -186q16 68 57 184l377 1120h102l-510 -1476h-57l-379 1085q-8 27 -17.5 53.5t-15.5 47t-12 34.5l-8 25q-2 10 -2 12q-25 -74 -64 -170l-428 -1087h-57l-514 1476h108l375 -1102q27 -74 44.5 -133t19.5 -65q10 47 69 190z" />
    <glyph glyph-name="X" unicode="X" horiz-adv-x="1196" 
d="M109 1464h120l394 -643l409 643h109l-471 -719l473 -745h-119l-422 680l-440 -680h-109l500 758z" />
    <glyph glyph-name="Y" unicode="Y" horiz-adv-x="1267" 
d="M682 0h-98v524l-551 940h119l426 -741q37 -66 61 -115q8 27 57 111l426 745h113l-553 -944v-520z" />
    <glyph glyph-name="Z" unicode="Z" horiz-adv-x="1292" 
d="M1141 1464v-45l-862 -1333h878v-86h-1022v47l862 1331h-809v86h953z" />
    <glyph glyph-name="bracketleft" unicode="[" horiz-adv-x="704" 
d="M270 -244v1708h402v-90h-303v-1528h303v-90h-402z" />
    <glyph glyph-name="backslash" unicode="\" horiz-adv-x="757" 
d="M100 1483l637 -1479l-80 -31l-637 1479z" />
    <glyph glyph-name="bracketright" unicode="]" horiz-adv-x="704" 
d="M434 1464v-1708h-401v90h303v1528h-303v90h401z" />
    <glyph glyph-name="asciicircum" unicode="^" horiz-adv-x="741" 
d="M371 1147l-203 -283l-45 33l248 416l247 -416l-45 -33z" />
    <glyph glyph-name="underscore" unicode="_" horiz-adv-x="966" 
d="M0 -76h967v-90h-967v90z" />
    <glyph glyph-name="grave" unicode="`" horiz-adv-x="552" 
d="M399 1106l-317 164l117 47l272 -191z" />
    <glyph glyph-name="a" unicode="a" horiz-adv-x="1222" 
d="M604 1186q-31 -92 -55 -154l-205 -491h524l-202 489q-48 115 -62 156zM311 461l-190 -461h-96l557 1337h55l561 -1337h-104l-193 461h-590z" />
    <glyph glyph-name="b" unicode="b" horiz-adv-x="1171" 
d="M538.5 1257q-116.5 0 -200.5 -6v-501q178 0 285 -11q80 43 140 126t60 183.5t-84 154.5t-200.5 54zM623 74q133 0 220 74.5t87 188.5t-87 199t-227 119q-71 17 -186 17l-92 -2v-588q88 -8 285 -8zM542.5 1335q153.5 0 263 -73.5t109.5 -214.5q0 -106 -57 -196.5
t-139 -137.5q133 -39 221 -139.5t88 -227.5q0 -176 -111.5 -266t-314.5 -90t-358 14v1319q145 12 298.5 12z" />
    <glyph glyph-name="c" unicode="c" horiz-adv-x="1370" 
d="M853 -20q-273 0 -481 196.5t-208 488t181 488.5t468 197q231 0 453 -72l-25 -78q-213 66 -440.5 66t-382 -173t-154.5 -424t179.5 -427t415 -176t390.5 65l31 -65q-154 -86 -427 -86z" />
    <glyph glyph-name="d" unicode="d" horiz-adv-x="1513" 
d="M631 1341q307 0 513 -189t206 -515t-189.5 -489.5t-488.5 -163.5q-207 0 -426 20v1325q164 12 385 12zM672 70q262 0 420.5 141t158.5 426t-179 452.5t-441 167.5q-186 0 -287 -8v-1165q123 -14 328 -14z" />
    <glyph glyph-name="e" unicode="e" horiz-adv-x="1017" 
d="M246 0v1329h620v-82h-526v-483h475v-80h-475v-598h547v-86h-641z" />
    <glyph glyph-name="f" unicode="f" horiz-adv-x="1046" 
d="M246 0v1329h682v-82h-588v-483h537v-80h-537v-684h-94z" />
    <glyph glyph-name="g" unicode="g" horiz-adv-x="1511" 
d="M264 668q0 -252 174 -427t410.5 -175t368.5 55v547h94v-590q-160 -98 -453 -98t-493.5 198.5t-200.5 488t181 486.5t468 197q231 0 453 -72l-25 -78q-213 66 -440.5 66t-382 -173t-154.5 -425z" />
    <glyph glyph-name="h" unicode="h" horiz-adv-x="1603" 
d="M1264 0v672h-924v-672h-94v1329h94v-573h924v573h94v-1329h-94z" />
    <glyph glyph-name="i" unicode="i" horiz-adv-x="585" 
d="M246 0v1329h94v-1329h-94z" />
    <glyph glyph-name="j" unicode="j" horiz-adv-x="583" 
d="M246 152v1177h92v-1118q0 -166 -51 -293t-119 -196.5t-174 -145.5l-43 62q295 215 295 514z" />
    <glyph glyph-name="k" unicode="k" horiz-adv-x="1159" 
d="M340 1329v-1329h-94v1329h94zM1053 1329l-568 -641q336 -408 460 -516.5t247 -122.5l-2 -63q-115 2 -186.5 33.5t-127 85t-236.5 261t-271 318.5l571 645h113z" />
    <glyph glyph-name="l" unicode="l" horiz-adv-x="983" 
d="M246 0v1329h94v-1243h610v-86h-704z" />
    <glyph glyph-name="m" unicode="m" horiz-adv-x="1722" 
d="M862 70h-55l-387 940q-25 55 -49 129q0 -2 -3 -22.5t-7.5 -54.5t-8.5 -56l-153 -1006h-93l218 1337h55l414 -981q49 -123 49 -129q14 43 55 127l461 983h55l203 -1337h-98l-146 1010q-14 100 -14 133l-60 -135z" />
    <glyph glyph-name="n" unicode="n" horiz-adv-x="1628" 
d="M246 0v1337h45l872 -1003q47 -53 87 -105.5t42 -54.5q-4 49 -4 193v962h94v-1337h-45l-888 1020l-113 137q4 -41 4 -193v-956h-94z" />
    <glyph glyph-name="o" unicode="o" horiz-adv-x="1667" 
d="M262 665q0 -253 163 -426t409.5 -173t408.5 173t162 426t-162 427t-408.5 174t-409.5 -174t-163 -427zM164 664.5q0 287.5 192.5 486.5t477 199t477 -199t192.5 -486.5t-192.5 -486t-477 -198.5t-477 198.5t-192.5 486z" />
    <glyph glyph-name="p" unicode="p" horiz-adv-x="1081" 
d="M246 0v1321q154 16 324.5 16t289.5 -91t119 -275.5t-162 -302t-383 -117.5h-22v65h14q182 0 317.5 96.5t135.5 250t-95.5 223t-251.5 69.5q-82 0 -192 -8v-1247h-94z" />
    <glyph glyph-name="q" unicode="q" horiz-adv-x="1665" 
d="M262 665q0 -253 162 -426t410 -173q129 0 233 49q-231 156 -360 155q-74 0 -136 -28l-30 57q70 45 155.5 45t167.5 -30.5t138.5 -63.5t146.5 -92q119 80 187.5 214t68.5 294q0 252 -163 426t-409.5 174t-408.5 -174t-162 -427zM164 664.5q0 287.5 192.5 486.5t477 199
t476 -199t191.5 -485q0 -170 -71.5 -315.5t-196.5 -239.5q487 -289 740 -349t468 -17.5t277 73.5l22 -54q-78 -37 -226.5 -72.5t-278.5 -35.5t-277.5 34t-307 107.5t-246.5 119.5t-251 142q-147 -80 -319 -79q-285 0 -477.5 198.5t-192.5 486z" />
    <glyph glyph-name="r" unicode="r" horiz-adv-x="1245" 
d="M614 612q80 0 172.5 106.5t92.5 248t-96.5 215t-250.5 73.5q-82 0 -192 -8v-624q147 -11 274 -11zM246 0v1323q176 14 299 14q188 0 311 -97t123 -277q0 -121 -69.5 -223.5t-157.5 -166.5q244 -324 301 -387q117 -121 254 -137l-2 -63q-115 2 -186.5 33.5t-142.5 107.5
t-310 408q-166 0 -326 10v-545h-94z" />
    <glyph glyph-name="s" unicode="s" horiz-adv-x="993" 
d="M514 1272q-111 0 -180.5 -53t-69.5 -157t92 -192q66 -63 169.5 -133.5t142.5 -101.5t94 -84q100 -100 100 -232q0 -170 -113.5 -257t-317.5 -87t-341 107l49 72q139 -94 295 -94.5t243 65t87 175.5t-88 198q-61 61 -164.5 132.5t-144.5 103.5t-97 85q-104 104 -104 241.5
t97 215.5t269.5 78t309.5 -68l-35 -76q-127 62 -293 62z" />
    <glyph glyph-name="t" unicode="t" horiz-adv-x="1058" 
d="M483 1245h-450v84h993v-84h-451v-1245h-92v1245z" />
    <glyph glyph-name="u" unicode="u" horiz-adv-x="1560" 
d="M780.5 -20q-276.5 0 -412 157.5t-135.5 435.5v756h95v-756q0 -510 452.5 -510t452.5 510v756h94v-756q0 -279 -135 -436t-411.5 -157z" />
    <glyph glyph-name="v" unicode="v" horiz-adv-x="1247" 
d="M680 279l444 1050h99l-572 -1337h-55l-571 1337h102l502 -1182q10 32 51 132z" />
    <glyph glyph-name="w" unicode="w" horiz-adv-x="1923" 
d="M584 324l383 979h59l334 -986l49 -165q6 39 51 163l340 1014h98l-462 -1337h-56q-342 981 -357 1028t-34 100q-10 -35 -55 -145l-387 -983h-55l-467 1337h104l338 -997q29 -82 53 -182q11 41 64 174z" />
    <glyph glyph-name="x" unicode="x" horiz-adv-x="1060" 
d="M84 1329h115l354 -575l371 575h102l-426 -651l428 -678h-113l-380 610l-398 -610h-104l454 688z" />
    <glyph glyph-name="y" unicode="y" horiz-adv-x="1144" 
d="M618 0h-92v475l-501 854h112l387 -659q45 -90 51 -97q12 27 52 95l387 661h106l-502 -858v-471z" />
    <glyph glyph-name="z" unicode="z" horiz-adv-x="1150" 
d="M1030 1329v-45l-782 -1198h792v-86h-929v47l782 1200h-731v82h868z" />
    <glyph glyph-name="braceleft" unicode="{" horiz-adv-x="593" 
d="M281 911q0 51 -22.5 152.5t-22.5 155.5q0 135 55 197.5t184 62.5v-76q-76 0 -111.5 -43t-35.5 -152q0 -43 21.5 -134t21.5 -138q0 -221 -187 -285q186 -63 187 -284q0 -47 -21.5 -138.5t-21.5 -134.5q0 -109 35.5 -151.5t111.5 -42.5v-76q-129 0 -184 62.5t-55 197.5
q0 53 22.5 154.5t22.5 152.5q0 106 -70 160.5t-170 62.5v74q100 8 170 62.5t70 160.5z" />
    <glyph glyph-name="bar" unicode="|" horiz-adv-x="575" 
d="M246 -459v1917h84v-1917h-84z" />
    <glyph glyph-name="braceright" unicode="}" horiz-adv-x="593" 
d="M313 391q0 -51 22.5 -152.5t22.5 -154.5q0 -135 -55 -197.5t-184 -62.5v76q76 0 111.5 43t35.5 151q0 43 -21.5 134t-21.5 139q0 221 187 284q-186 63 -187 285q0 47 21.5 138t21.5 134q0 109 -35.5 152t-111.5 43v76q129 0 184 -62.5t55 -197.5q0 -53 -22.5 -154.5
t-22.5 -153.5q0 -106 70 -160.5t170 -62.5v-74q-100 -8 -170 -62.5t-70 -160.5z" />
    <glyph glyph-name="asciitilde" unicode="~" horiz-adv-x="1323" 
d="M889 758q104 0 225 186l66 -39q-144 -233 -257 -231.5t-156.5 23.5t-54.5 27t-40 21q-174 102 -237.5 102.5t-124 -58t-103.5 -127.5l-64 36q59 94 105 144q80 90 179 90t205.5 -61.5t122 -68.5t53.5 -25.5t81 -18.5z" />
    <glyph glyph-name="uni00A0" unicode="&#xa0;" horiz-adv-x="737" 
 />
    <glyph glyph-name="exclamdown" unicode="&#xa1;" horiz-adv-x="581" 
d="M244 -25l10 1024h74l10 -1024h-94zM225 1265.5q0 28.5 18.5 47t47 18.5t47 -18.5t18.5 -47t-18.5 -47t-47 -18.5t-47 18.5t-18.5 47z" />
    <glyph glyph-name="cent" unicode="&#xa2;" horiz-adv-x="1370" 
d="M260 666q0 -195 113.5 -350.5t294.5 -219.5l116 1174q-233 -12 -378.5 -184t-145.5 -420zM164 666q0 285 175 480t454 204l28 295h82l-29 -295q201 -10 392 -70l-25 -76q-199 57 -375 64l-118 -1194q59 -12 122 -13q225 0 381 66l29 -64q-152 -84 -410 -83q-68 0 -131 12
l-26 -279h-82l28 297q-217 66 -356 243t-139 413z" />
    <glyph glyph-name="sterling" unicode="&#xa3;" horiz-adv-x="1097" 
d="M31 877h215v167q0 227 93 334t304 107q166 0 365 -66l-23 -73q-172 57 -341 57t-234.5 -82t-65.5 -277v-167h520v-91h-520v-696h664v-90h-977v90h215v696h-215v91z" />
    <glyph glyph-name="currency" unicode="&#xa4;" horiz-adv-x="1071" 
d="M303 653.5q0 -106.5 65.5 -176t170 -69.5t170 69.5t65.5 176t-65.5 176t-170 69.5t-170 -69.5t-65.5 -176zM213 654.5q0 111.5 59 195.5l-129 131l64 63l125 -129q90 74 203.5 74t203.5 -69l125 124l64 -63l-127 -127q63 -94 63 -204.5t-65 -198.5l129 -127l-64 -64
l-127 127q-86 -68 -202.5 -68t-198.5 70l-129 -129l-64 64l131 131q-61 88 -61 199.5z" />
    <glyph glyph-name="yen" unicode="&#xa5;" horiz-adv-x="1251" 
d="M1038 670v-90h-364v-252h364v-90h-364v-238h-99v238h-362v90h362v252h-362v90h346l-534 794h118l414 -620q41 -61 74 -115q2 8 69 111l414 624h113l-535 -794h346z" />
    <glyph glyph-name="brokenbar" unicode="&#xa6;" horiz-adv-x="575" 
d="M246 -459v711h84v-711h-84zM246 745v713h84v-713h-84z" />
    <glyph glyph-name="section" unicode="&#xa7;" horiz-adv-x="1021" 
d="M768 612.5q0 112.5 -154 194.5h-108q-109 0 -185.5 -67.5t-76.5 -150.5t58 -136.5t169 -104.5q117 12 207 82t90 182.5zM862 605.5q0 -111.5 -77.5 -192.5t-196.5 -116q121 -55 188.5 -121.5t67.5 -173.5q0 -170 -114 -257t-294 -87q-100 0 -198.5 29.5t-159.5 76.5
l43 66q137 -92 295.5 -92t246 66.5t87.5 187.5q0 66 -44 117t-112 81.5t-144.5 67.5t-144 74t-111.5 102.5t-44 151.5q0 125 89 196.5t238 89.5q-231 106 -280 213q-23 51 -23 119q0 131 95.5 208t257 77t307.5 -70l-31 -71q-127 61 -263.5 61t-204 -52t-67.5 -140.5
t61.5 -146.5t148.5 -96t174 -78t148.5 -109.5t61.5 -181z" />
    <glyph glyph-name="dieresis" unicode="&#xa8;" horiz-adv-x="724" 
d="M535 1112v109h108v-109h-108zM82 1112v109h108v-109h-108z" />
    <glyph glyph-name="copyright" unicode="&#xa9;" 
d="M268 734q0 -290 177.5 -485.5t458 -195.5t458.5 195.5t178 485.5t-177 483.5t-458.5 193.5t-459 -193.5t-177.5 -483.5zM184 733.5q0 319.5 204 537.5t515 218t516 -218t205 -537.5t-205 -539t-516 -219.5t-515 219.5t-204 539zM463 728q0 196 122 328t296 132t329 -49
l-24 -68q-168 43 -289 43q-154 0 -253 -110.5t-99 -272.5t115.5 -274.5t268 -112.5t263.5 45l27 -59q-111 -61 -294.5 -61.5t-322.5 131.5t-139 328z" />
    <glyph glyph-name="ordfeminine" unicode="&#xaa;" horiz-adv-x="823" 
d="M514 1090l-86 210q-16 37 -16 48q-6 -12 -10.5 -25.5t-8.5 -24.5l-88 -208h209zM285 1030l-90 -211h-72l268 639h41l268 -639h-71l-90 211h-254z" />
    <glyph glyph-name="guillemotleft" unicode="&#xab;" horiz-adv-x="925" 
d="M436 299l-334 381l334 381l60 -49l-291 -332l291 -332zM764 299l-334 381l334 381l59 -49l-291 -332l291 -332z" />
    <glyph glyph-name="logicalnot" unicode="&#xac;" horiz-adv-x="1300" 
d="M1071 193v471h-928v84h1012v-555h-84z" />
    <glyph glyph-name="uni00AD" unicode="&#xad;" horiz-adv-x="1011" 
d="M143 745h725v-81h-725v81z" />
    <glyph glyph-name="registered" unicode="&#xae;" 
d="M1108 973q0 135 -170 135t-209 -4v-395q104 -7 219 -7q51 0 105.5 68t54.5 203zM647 281v893q203 6 256 6q127 0 208 -66.5t81 -174.5t-58.5 -185.5t-117.5 -110.5l160 -225q45 -63 116 -74v-59q-74 0 -107.5 14t-68.5 66l-188 270q-76 0 -199 8v-362h-82zM268 734
q0 -290 177.5 -485.5t458 -195.5t458.5 195.5t178 485.5t-177 483.5t-458.5 193.5t-459 -193.5t-177.5 -483.5zM184 733.5q0 319.5 204 537.5t515 218t516 -218t205 -537.5t-205 -539t-516 -219.5t-515 219.5t-204 539z" />
    <glyph glyph-name="macron" unicode="&#xaf;" horiz-adv-x="778" 
d="M143 1522h492v-82h-492v82z" />
    <glyph glyph-name="degree" unicode="&#xb0;" horiz-adv-x="737" 
d="M215 1272q0 -74 42 -122t111.5 -48t111.5 48t42 122t-42 122t-111.5 48t-111.5 -48t-42 -122zM143 1273q0 99 63.5 167.5t161 68.5t162 -68.5t64.5 -167.5t-64.5 -169t-162 -70t-161 70t-63.5 169z" />
    <glyph glyph-name="plusminus" unicode="&#xb1;" horiz-adv-x="1011" 
d="M143 90h725v-90h-725v90zM461 342v317h-318v91h318v317h90v-317h317v-91h-317v-317h-90z" />
    <glyph glyph-name="twosuperior" unicode="&#xb2;" horiz-adv-x="860" 
d="M123 600v74q451 375 450 569q0 86 -43 120t-142 34t-204 -43l-26 86q131 45 248 45q264 0 264 -242q0 -229 -387 -557h454v-86h-614z" />
    <glyph glyph-name="threesuperior" unicode="&#xb3;" horiz-adv-x="808" 
d="M398.5 1485q109.5 0 174 -51.5t64.5 -135.5q0 -113 -123 -200q172 -68 172 -230q0 -123 -92 -204.5t-228.5 -81.5t-242.5 57l33 74q98 -43 202.5 -43t166 56t61.5 141t-85 131t-161 46q-14 0 -27 -2v78q88 0 159 57.5t71 110.5q0 106 -146 107q-94 0 -207 -41l-22 80
q121 51 230.5 51z" />
    <glyph glyph-name="acute" unicode="&#xb4;" horiz-adv-x="532" 
d="M451 1214l-299 -108l-70 20l356 197z" />
    <glyph glyph-name="mu" unicode="&#xb5;" horiz-adv-x="1527" 
d="M238 573v758h90v-758q0 -248 99 -381t336.5 -133t337 133.5t99.5 380.5v758h90v-758q0 -594 -526 -593q-328 0 -451 231q-39 -373 -153 -678h-90q172 449 174 920q-6 59 -6 120z" />
    <glyph glyph-name="paragraph" unicode="&#xb6;" horiz-adv-x="1275" 
d="M1006 -272h-78v1669l-80 4v-1788h-78v1786q-25 2 -49 2q-111 0 -206 -69t-95 -229.5t82 -262t192 -103.5v-61h-24q-227 0 -397.5 114.5t-170.5 310t129 291t330 95.5q94 0 445 -23v-1736z" />
    <glyph glyph-name="periodcentered" unicode="&#xb7;" horiz-adv-x="436" 
d="M164 739v109h108v-109h-108z" />
    <glyph glyph-name="cedilla" unicode="&#xb8;" horiz-adv-x="618" 
d="M283.5 -360q54.5 0 81 28.5t26.5 75.5t-27.5 75.5t-62.5 28.5t-61 -10l-60 25l53 137h82l-30 -88q14 2 26 2q66 0 115 -46t49 -122t-52 -127t-138 -51t-142 78l45 45q41 -51 95.5 -51z" />
    <glyph glyph-name="onesuperior" unicode="&#xb9;" horiz-adv-x="434" 
d="M311 1475v-871h-92v750l-125 -64l-33 70l193 115h57z" />
    <glyph glyph-name="ordmasculine" unicode="&#xba;" horiz-adv-x="870" 
d="M215 1136.5q0 -106.5 59.5 -173t161 -66.5t160.5 66.5t59 173t-59 173t-160.5 66.5t-161 -66.5t-59.5 -173zM123 1137.5q0 138.5 88 232.5t223 94t224.5 -94t89.5 -232.5t-89.5 -234.5t-224.5 -96t-223 96t-88 234.5z" />
    <glyph glyph-name="guillemotright" unicode="&#xbb;" horiz-adv-x="925" 
d="M823 680l-334 -381l-59 49l291 332l-291 332l59 49zM496 680l-334 -381l-60 49l291 332l-291 332l60 49z" />
    <glyph glyph-name="onequarter" unicode="&#xbc;" horiz-adv-x="1474" 
d="M199 -2l936 1501l71 -43l-934 -1499zM393 1434v-871h-92v750l-125 -64l-33 70l193 115h57zM1104 356v353l-268 -353h268zM1104 0v270h-389v66l413 541h68v-521h135v-86h-135v-270h-92z" />
    <glyph glyph-name="onehalf" unicode="&#xbd;" horiz-adv-x="1689" 
d="M199 -2l936 1501l71 -43l-934 -1499zM932 0v74q451 375 450 569q0 86 -43 120t-142 34t-204 -43l-26 86q131 45 247 45q264 0 265 -242q0 -229 -387 -557h454v-86h-614zM393 1434v-871h-92v750l-125 -64l-33 70l193 115h57z" />
    <glyph glyph-name="threequarters" unicode="&#xbe;" horiz-adv-x="1619" 
d="M199 -2l936 1501l71 -43l-934 -1499zM1427 696q0 -113 -122 -200q172 -68 172 -230q0 -123 -92.5 -204.5t-228.5 -81.5t-243 57l33 74q98 -43 202.5 -43t166 56t61.5 141t-85 131t-161 46q-14 0 -26 -2v78q88 0 158.5 57.5t70.5 110.5q0 106 -145 107q-94 0 -207 -41
l-23 79q121 51 230.5 51.5t174 -51t64.5 -135.5zM393 1434v-871h-92v750l-125 -64l-33 70l193 115h57z" />
    <glyph glyph-name="questiondown" unicode="&#xbf;" horiz-adv-x="970" 
d="M649 1423.5q0 -26.5 -19.5 -46t-46 -19.5t-46 19.5t-19.5 46t19.5 46t46 19.5t46 -19.5t19.5 -46zM547 1124h78q0 -119 -44 -218t-107.5 -166.5t-125.5 -129.5q-152 -152 -151.5 -284.5t87.5 -199.5t249.5 -67t297.5 91l37 -62q-61 -49 -159.5 -78.5t-198.5 -29.5
q-180 0 -294 87t-114 251t156 321q66 63 131.5 130t111.5 159t46 196z" />
    <glyph glyph-name="Agrave" unicode="&#xc0;" horiz-adv-x="1357" 
d="M700 1550l-317 164l117 47l272 -190zM672 1311q-2 -1 -20 -57t-44 -117l-225 -545h586l-226 543q-71 156 -71 176zM348 508l-211 -508h-104l616 1475h58l618 -1475h-111l-210 508h-656z" />
    <glyph glyph-name="Aacute" unicode="&#xc1;" horiz-adv-x="1357" 
d="M963 1659l-299 -109l-70 21l356 196zM672 1311q-2 -1 -20 -57t-44 -117l-225 -545h586l-226 543q-71 172 -71 176zM348 508l-211 -508h-104l616 1475h58l618 -1475h-111l-210 508h-656z" />
    <glyph glyph-name="Acircumflex" unicode="&#xc2;" horiz-adv-x="1357" 
d="M666 1642l-213 -104l-27 37l240 182l239 -182l-26 -37zM672 1311q-2 -1 -20 -57t-44 -117l-225 -545h586l-226 543q-71 156 -71 176zM348 508l-211 -508h-104l616 1475h58l618 -1475h-111l-210 508h-656z" />
    <glyph glyph-name="Atilde" unicode="&#xc3;" horiz-adv-x="1357" 
d="M504 1675q-78 0 -156 -125l-53 35q29 45 50.5 74t67.5 61.5t79.5 32.5t52 -3t40 -12t31 -13.5t37 -18.5t31.5 -16q98 -55 141 -56q78 0 156 125l53 -35q-29 -45 -50 -73.5t-67.5 -61.5t-80 -33t-52 3.5t-40 12.5t-30.5 13t-37 18.5t-32 16.5q-98 55 -141 55zM672 1311
q-2 -1 -20 -57t-44 -117l-225 -545h586l-226 543q-71 156 -71 176zM348 508l-211 -508h-104l616 1475h58l618 -1475h-111l-210 508h-656z" />
    <glyph glyph-name="Adieresis" unicode="&#xc4;" horiz-adv-x="1357" 
d="M838 1556v109h108v-109h-108zM385 1556v109h109v-109h-109zM672 1311q-2 -1 -20 -57t-44 -117l-225 -545h586l-226 543q-71 156 -71 176zM348 508l-211 -508h-104l616 1475h58l618 -1475h-111l-210 508h-656z" />
    <glyph glyph-name="Aring" unicode="&#xc5;" horiz-adv-x="1357" 
d="M584 1573q0 -41 26.5 -68.5t65.5 -27.5t65.5 27.5t26.5 68.5t-26.5 69.5t-65.5 28.5t-65.5 -28.5t-26.5 -69.5zM672 1311q-2 -1 -20 -57t-44 -117l-225 -545h586l-226 543q-71 156 -71 176zM508 1581.5q0 65.5 48 115.5t120 50t121 -50t49 -115.5t-31 -111t-82 -61.5
l592 -1409h-111l-210 508h-656l-211 -508h-104l588 1407q-52 16 -82.5 62.5t-30.5 112z" />
    <glyph glyph-name="AE" unicode="&#xc6;" horiz-adv-x="1734" 
d="M909 840v458q-51 -102 -88 -163l-176 -295h264zM1589 1464v-86h-581v-538h526v-84h-526v-670h604v-86h-703v756h-313l-449 -756h-114l876 1464h680z" />
    <glyph glyph-name="Ccedilla" unicode="&#xc7;" horiz-adv-x="1525" 
d="M1013 -360q54 0 80.5 28.5t26.5 75.5t-27.5 75.5t-62.5 28.5t-61 -10l-60 25l43 112q-317 4 -542.5 221.5t-225.5 537t201 537.5t514 218q246 0 498 -82l-27 -82q-246 74 -471 74q-268 0 -438 -192.5t-170 -471t197.5 -474t474.5 -195.5q242 0 417 73l31 -69
q-133 -78 -375 -93l-22 -65q14 2 26 2q66 0 115 -46t49 -122t-52 -127t-138 -51t-142 78l46 45q41 -51 95 -51z" />
    <glyph glyph-name="Egrave" unicode="&#xc8;" horiz-adv-x="1095" 
d="M694 1550l-317 164l117 47l272 -190zM270 0v1464h680v-86h-581v-538h526v-84h-526v-670h604v-86h-703z" />
    <glyph glyph-name="Eacute" unicode="&#xc9;" horiz-adv-x="1095" 
d="M823 1659l-299 -109l-69 21l356 196zM270 0v1464h680v-86h-581v-538h526v-84h-526v-670h604v-86h-703z" />
    <glyph glyph-name="Ecircumflex" unicode="&#xca;" horiz-adv-x="1095" 
d="M608 1642l-213 -104l-26 37l239 182l240 -182l-27 -37zM270 0v1464h680v-86h-581v-538h526v-84h-526v-670h604v-86h-703z" />
    <glyph glyph-name="Edieresis" unicode="&#xcb;" horiz-adv-x="1095" 
d="M768 1556v109h109v-109h-109zM315 1556v109h109v-109h-109zM270 0v1464h680v-86h-581v-538h526v-84h-526v-670h604v-86h-703z" />
    <glyph glyph-name="Igrave" unicode="&#xcc;" horiz-adv-x="638" 
d="M401 1550l-317 164l117 47l272 -190zM270 0v1464h99v-1464h-99z" />
    <glyph glyph-name="Iacute" unicode="&#xcd;" horiz-adv-x="638" 
d="M586 1659l-299 -109l-70 21l356 196zM270 0v1464h99v-1464h-99z" />
    <glyph glyph-name="Icircumflex" unicode="&#xce;" horiz-adv-x="638" 
d="M319 1642l-213 -104l-26 37l239 182l240 -182l-27 -37zM270 0v1464h99v-1464h-99z" />
    <glyph glyph-name="Idieresis" unicode="&#xcf;" horiz-adv-x="638" 
d="M270 0v1464h99v-1464h-99zM428 1563v108h109v-108h-109zM102 1563v108h109v-108h-109z" />
    <glyph glyph-name="Eth" unicode="&#xd0;" horiz-adv-x="1669" 
d="M369 815h368v-90h-368v-637q133 -16 370 -16q289 0 464 156.5t175 472t-197.5 502t-488.5 186.5q-186 0 -323 -11v-563zM12 815h258v649q209 14 422 15q338 0 565.5 -210t227.5 -571q0 -182 -58.5 -322t-160.5 -224q-211 -170 -527 -170q-207 0 -469 22v721h-258v90z" />
    <glyph glyph-name="Ntilde" unicode="&#xd1;" horiz-adv-x="1792" 
d="M735 1675q-78 0 -155 -125l-54 35q29 45 50.5 74t67.5 61.5t80 32.5t52.5 -3t40 -12t30.5 -13.5t36.5 -18.5t31.5 -16q98 -55 142 -56q78 0 155 125l54 -35q-29 -45 -50.5 -73.5t-67.5 -61.5t-80 -33t-52.5 3.5t-47 15.5t-112 56t-121.5 44zM360 0h-90v1477h45l971 -1131
q94 -104 152 -182q-8 98 -8 221v1079h92v-1476h-45l-992 1153q-102 111 -131 149l2 -45l4 -168v-1077z" />
    <glyph glyph-name="Ograve" unicode="&#xd2;" 
d="M1016 1550l-318 164l117 47l272 -190zM291 733.5q0 -282.5 171 -475t442.5 -192.5t442.5 192.5t171 475t-171 474t-443.5 191.5t-442.5 -191.5t-170 -474zM184 733.5q0 319.5 204 537.5t515 218t516 -218t205 -537.5t-205 -539t-516 -219.5t-515 219.5t-204 539z" />
    <glyph glyph-name="Oacute" unicode="&#xd3;" 
d="M1165 1659l-299 -109l-69 21l356 196zM291 733.5q0 -282.5 171 -475t442.5 -192.5t442.5 192.5t171 475t-171 474t-443.5 191.5t-442.5 -191.5t-170 -474zM184 733.5q0 319.5 204 537.5t515 218t516 -218t205 -537.5t-205 -539t-516 -219.5t-515 219.5t-204 539z" />
    <glyph glyph-name="Ocircumflex" unicode="&#xd4;" 
d="M938 1642l-213 -104l-27 37l240 182l240 -182l-27 -37zM291 733.5q0 -282.5 171 -475t442.5 -192.5t442.5 192.5t171 475t-171 474t-443.5 191.5t-442.5 -191.5t-170 -474zM184 733.5q0 319.5 204 537.5t515 218t516 -218t205 -537.5t-205 -539t-516 -219.5t-515 219.5
t-204 539z" />
    <glyph glyph-name="Otilde" unicode="&#xd5;" 
d="M776 1675q-78 0 -155 -125l-54 35q29 45 50.5 74t67.5 61.5t80 32.5t52.5 -3t40 -12t30.5 -13.5t36.5 -18.5t31.5 -16q98 -55 142 -56q78 0 155 125l54 -35q-29 -45 -50.5 -73.5t-67.5 -61.5t-80 -33t-52.5 3.5t-47 15.5t-112 56t-121.5 44zM291 733.5q0 -282.5 171 -475
t442.5 -192.5t442.5 192.5t171 475t-171 474t-443.5 191.5t-442.5 -191.5t-170 -474zM184 733.5q0 319.5 204 537.5t515 218t516 -218t205 -537.5t-205 -539t-516 -219.5t-515 219.5t-204 539z" />
    <glyph glyph-name="Odieresis" unicode="&#xd6;" 
d="M1110 1556v109h109v-109h-109zM657 1556v109h109v-109h-109zM291 733.5q0 -282.5 171 -475t442.5 -192.5t442.5 192.5t171 475t-171 474t-443.5 191.5t-442.5 -191.5t-170 -474zM184 733.5q0 319.5 204 537.5t515 218t516 -218t205 -537.5t-205 -539t-516 -219.5
t-515 219.5t-204 539z" />
    <glyph glyph-name="multiply" unicode="&#xd7;" horiz-adv-x="1071" 
d="M207 1044l328 -329l329 329l64 -63l-330 -330l330 -327l-64 -64l-329 328l-328 -328l-64 64l328 327l-328 330z" />
    <glyph glyph-name="Oslash" unicode="&#xd8;" 
d="M291 716q0 -300 209 -497l743 1077q-147 102 -340 103q-272 0 -442 -191.5t-170 -491.5zM1518 733q0 319 -211 514l-744 -1079q147 -102 340 -102q272 0 443.5 192t171.5 475zM184 733q0 319 204 537.5t515 218.5q219 0 393 -117l125 182l66 -47l-125 -182
q125 -104 193.5 -258t68.5 -334q0 -319 -205 -538.5t-516 -219.5q-219 0 -393 117l-123 -178l-65 45l124 180q-125 106 -193.5 260t-68.5 334z" />
    <glyph glyph-name="Ugrave" unicode="&#xd9;" horiz-adv-x="1652" 
d="M915 1550l-317 164l117 47l272 -190zM827.5 -25q-288.5 0 -431 168t-142.5 459v862h98v-862q0 -541 474 -541t474 541v862h99v-862q0 -293 -141.5 -460t-430 -167z" />
    <glyph glyph-name="Uacute" unicode="&#xda;" horiz-adv-x="1652" 
d="M1059 1659l-299 -109l-70 21l357 196zM827.5 -25q-288.5 0 -431 168t-142.5 459v862h98v-862q0 -541 474 -541t474 541v862h99v-862q0 -293 -141.5 -460t-430 -167z" />
    <glyph glyph-name="Ucircumflex" unicode="&#xdb;" horiz-adv-x="1652" 
d="M854 1642l-213 -104l-27 37l240 182l240 -182l-27 -37zM827.5 -25q-288.5 0 -431 168t-142.5 459v862h98v-862q0 -541 474 -541t474 541v862h99v-862q0 -293 -141.5 -460t-430 -167z" />
    <glyph glyph-name="Udieresis" unicode="&#xdc;" horiz-adv-x="1652" 
d="M1026 1556v109h109v-109h-109zM573 1556v109h109v-109h-109zM827.5 -25q-288.5 0 -431 168t-142.5 459v862h98v-862q0 -541 474 -541t474 541v862h99v-862q0 -293 -141.5 -460t-430 -167z" />
    <glyph glyph-name="Yacute" unicode="&#xdd;" horiz-adv-x="1267" 
d="M844 1659l-299 -109l-70 21l356 196zM682 0h-98v524l-551 940h119l426 -741q37 -66 61 -115q8 27 57 111l426 745h113l-553 -944v-520z" />
    <glyph glyph-name="Thorn" unicode="&#xde;" horiz-adv-x="1189" 
d="M270 0v1464h99v-358q160 8 231 8q475 0 475 -369q0 -203 -171 -304t-421 -101h-30v68h20q209 0 352.5 78.5t143.5 245.5t-101.5 230.5t-283.5 63.5q-92 0 -215 -8v-1018h-99z" />
    <glyph glyph-name="germandbls" unicode="&#xdf;" horiz-adv-x="2002" 
d="M1524 1272q-111 0 -180.5 -53t-69.5 -157t92 -192q66 -63 169 -133.5t142 -101.5t92 -84q102 -100 103 -232q0 -170 -113.5 -257t-317.5 -87t-341 107l49 72q139 -94 294.5 -94.5t243 65t87.5 175.5t-74 185q-74 74 -178.5 145.5t-145.5 103.5t-96 85
q-104 104 -104 241.5t97 215.5t268 78t310 -68l-34 -76q-127 62 -293 62zM514 1272q-111 0 -180.5 -53t-69.5 -157t92 -192q66 -63 169.5 -133.5t142.5 -101.5t94 -84q100 -100 100 -232q0 -170 -113.5 -257t-317.5 -87t-341 107l49 72q139 -94 295 -94.5t243 65t87 175.5
t-88 198q-61 61 -164.5 132.5t-144.5 103.5t-97 85q-104 104 -104 241.5t97 215.5t269.5 78t309.5 -68l-35 -76q-127 62 -293 62z" />
    <glyph glyph-name="agrave" unicode="&#xe0;" horiz-adv-x="1222" 
d="M682 1436l-317 163l116 48l273 -191zM604 1186q-31 -92 -55 -154l-205 -491h524l-202 489q-48 115 -62 156zM311 461l-190 -461h-96l557 1337h55l561 -1337h-104l-193 461h-590z" />
    <glyph glyph-name="aacute" unicode="&#xe1;" horiz-adv-x="1222" 
d="M866 1544l-299 -108l-69 20l356 197zM604 1186q-31 -92 -55 -154l-205 -491h524l-202 489q-48 115 -62 156zM311 461l-190 -461h-96l557 1337h55l561 -1337h-104l-193 461h-590z" />
    <glyph glyph-name="acircumflex" unicode="&#xe2;" horiz-adv-x="1222" 
d="M600 1540l-213 -104l-27 37l240 182l240 -182l-27 -37zM604 1186q-31 -92 -55 -154l-205 -491h524l-202 489q-48 115 -62 156zM311 461l-190 -461h-96l557 1337h55l561 -1337h-104l-193 461h-590z" />
    <glyph glyph-name="atilde" unicode="&#xe3;" horiz-adv-x="1222" 
d="M438 1554q-78 0 -155 -124l-54 34q29 45 50.5 74t67.5 61.5t80 32.5t52.5 -3t40 -12t30.5 -13.5t36.5 -18.5t31.5 -16q98 -55 142 -56q78 0 155 125l54 -34q-29 -45 -50.5 -74t-67.5 -61.5t-80 -32.5t-52.5 3t-47 15t-112 56t-121.5 44zM604 1186q-31 -92 -55 -154
l-205 -491h524l-202 489q-48 115 -62 156zM311 461l-190 -461h-96l557 1337h55l561 -1337h-104l-193 461h-590z" />
    <glyph glyph-name="adieresis" unicode="&#xe4;" horiz-adv-x="1222" 
d="M772 1442v108h109v-108h-109zM319 1442v108h109v-108h-109zM604 1186q-31 -92 -55 -154l-205 -491h524l-202 489q-48 115 -62 156zM311 461l-190 -461h-96l557 1337h55l561 -1337h-104l-193 461h-590z" />
    <glyph glyph-name="aring" unicode="&#xe5;" horiz-adv-x="1224" 
d="M518 1438q0 -41 26.5 -69t65.5 -28t65.5 28t26.5 69t-26.5 69.5t-65.5 28.5t-65.5 -28.5t-26.5 -69.5zM606 1192q-2 -2 -12 -36t-47 -122l-205 -495h532l-204 493q-64 142 -64 160zM442 1445.5q0 65.5 48.5 116t120 50.5t120.5 -50.5t49 -116t-31.5 -111.5t-84.5 -62
l536 -1272h-100l-193 463h-598l-190 -463h-94l532 1272q-51 16 -83 62t-32 111.5z" />
    <glyph glyph-name="ae" unicode="&#xe6;" horiz-adv-x="1585" 
d="M817 764v416q-43 -86 -80 -148l-159 -268h239zM1434 1331v-78h-529v-489h479v-78h-479v-608h549v-78h-637v686h-287l-405 -686h-105l797 1331h617z" />
    <glyph glyph-name="ccedilla" unicode="&#xe7;" horiz-adv-x="1370" 
d="M914.5 -360q54.5 0 81 28.5t26.5 75.5t-27.5 75.5t-62.5 28.5t-62 -10l-59 25l45 117q-287 6 -489.5 201.5t-202.5 485t181 486.5t468 197q231 0 453 -72l-25 -78q-213 66 -440.5 66t-382 -173t-154.5 -424t179.5 -427t415 -176t390.5 65l31 -65q-121 -70 -340 -84
l-25 -70q14 2 27 2q66 0 115 -46t49 -122t-52.5 -127t-138.5 -51t-141 78l45 45q41 -51 95.5 -51z" />
    <glyph glyph-name="egrave" unicode="&#xe8;" horiz-adv-x="1017" 
d="M670 1436l-318 163l117 48l272 -191zM246 0v1329h620v-82h-526v-483h475v-80h-475v-598h547v-86h-641z" />
    <glyph glyph-name="eacute" unicode="&#xe9;" horiz-adv-x="1017" 
d="M760 1544l-299 -108l-70 20l357 197zM246 0v1329h620v-82h-526v-483h475v-80h-475v-598h547v-86h-641z" />
    <glyph glyph-name="ecircumflex" unicode="&#xea;" horiz-adv-x="1017" 
d="M563 1540l-213 -104l-26 37l239 182l240 -182l-27 -37zM246 0v1329h620v-82h-526v-483h475v-80h-475v-598h547v-86h-641z" />
    <glyph glyph-name="edieresis" unicode="&#xeb;" horiz-adv-x="1017" 
d="M721 1444v108h108v-108h-108zM268 1444v108h109v-108h-109zM246 0v1329h620v-82h-526v-483h475v-80h-475v-598h547v-86h-641z" />
    <glyph glyph-name="igrave" unicode="&#xec;" horiz-adv-x="585" 
d="M360 1436l-317 163l117 48l272 -191zM246 0v1329h94v-1329h-94z" />
    <glyph glyph-name="iacute" unicode="&#xed;" horiz-adv-x="585" 
d="M545 1544l-299 -108l-70 20l356 197zM246 0v1329h94v-1329h-94z" />
    <glyph glyph-name="icircumflex" unicode="&#xee;" horiz-adv-x="585" 
d="M293 1540l-213 -104l-27 37l240 182l239 -182l-26 -37zM246 0v1329h94v-1329h-94z" />
    <glyph glyph-name="idieresis" unicode="&#xef;" horiz-adv-x="585" 
d="M246 0v1329h94v-1329h-94zM381 1448v108h108v-108h-108zM96 1448v108h109v-108h-109z" />
    <glyph glyph-name="eth" unicode="&#xf0;" horiz-adv-x="1513" 
d="M344 739h330v-82h-330v-573q123 -14 328 -14q262 0 420.5 141t158.5 426t-179 452.5t-441 167.5q-186 0 -287 -8v-510zM246 657h-232v82h232v590q164 12 385 12q307 0 513 -189t206 -515t-189.5 -489.5t-488.5 -163.5q-207 0 -426 20v653z" />
    <glyph glyph-name="ntilde" unicode="&#xf1;" horiz-adv-x="1628" 
d="M655 1554q-78 0 -155 -124l-54 34q29 45 50.5 74t67.5 61.5t80 32.5t52.5 -3t40 -12t30.5 -13.5t36.5 -18.5t32.5 -16q98 -55 141 -56q78 0 156 125l53 -34q-29 -45 -50.5 -74t-67.5 -61.5t-80 -32.5t-52 3t-46.5 14.5t-112.5 56t-122 44.5zM246 0v1337h45l880 -1020
q47 -53 87 -105t42 -54q-4 49 -4 192v979h86v-1337h-45l-897 1040l-112 137q4 -41 4 -192v-977h-86z" />
    <glyph glyph-name="ograve" unicode="&#xf2;" horiz-adv-x="1667" 
d="M881 1436l-318 163l117 48l272 -191zM262 665q0 -253 163 -426t409.5 -173t408.5 173t162 426t-162 427t-408.5 174t-409.5 -174t-163 -427zM164 664.5q0 287.5 192.5 486.5t477 199t477 -199t192.5 -486.5t-192.5 -486t-477 -198.5t-477 198.5t-192.5 486z" />
    <glyph glyph-name="oacute" unicode="&#xf3;" horiz-adv-x="1667" 
d="M1116 1544l-299 -108l-69 20l356 197zM262 665q0 -253 163 -426t409.5 -173t408.5 173t162 426t-162 427t-408.5 174t-409.5 -174t-163 -427zM164 664.5q0 287.5 192.5 486.5t477 199t477 -199t192.5 -486.5t-192.5 -486t-477 -198.5t-477 198.5t-192.5 486z" />
    <glyph glyph-name="ocircumflex" unicode="&#xf4;" horiz-adv-x="1667" 
d="M836 1540l-213 -104l-27 37l240 182l239 -182l-26 -37zM262 665q0 -253 163 -426t409.5 -173t408.5 173t162 426t-162 427t-408.5 174t-409.5 -174t-163 -427zM164 664.5q0 287.5 192.5 486.5t477 199t477 -199t192.5 -486.5t-192.5 -486t-477 -198.5t-477 198.5
t-192.5 486z" />
    <glyph glyph-name="otilde" unicode="&#xf5;" horiz-adv-x="1667" 
d="M674 1538q-78 0 -156 -125l-53 35q29 45 50.5 73.5t67.5 61.5t79.5 33t52 -3t40 -12.5t31 -13.5t37 -18.5t31.5 -16.5q98 -55 141 -55q78 0 156 125l53 -35q-29 -45 -50 -73.5t-67.5 -61.5t-80 -33t-52 3t-40 12.5t-31 13.5t-37 18.5t-31.5 16.5q-98 55 -141 55zM262 665
q0 -253 163 -426t409.5 -173t408.5 173t162 426t-162 427t-408.5 174t-409.5 -174t-163 -427zM164 664.5q0 287.5 192.5 486.5t477 199t477 -199t192.5 -486.5t-192.5 -486t-477 -198.5t-477 198.5t-192.5 486z" />
    <glyph glyph-name="odieresis" unicode="&#xf6;" horiz-adv-x="1667" 
d="M1008 1442v108h108v-108h-108zM555 1442v108h109v-108h-109zM262 665q0 -253 163 -426t409.5 -173t408.5 173t162 426t-162 427t-408.5 174t-409.5 -174t-163 -427zM164 664.5q0 287.5 192.5 486.5t477 199t477 -199t192.5 -486.5t-192.5 -486t-477 -198.5t-477 198.5
t-192.5 486z" />
    <glyph glyph-name="divide" unicode="&#xf7;" horiz-adv-x="1011" 
d="M143 684h725v-90h-725v90zM440 954.5q0 28.5 19.5 47t46 18.5t46 -18.5t19.5 -47t-19.5 -47t-46 -18.5t-46 18.5t-19.5 47zM440 323.5q0 28.5 19.5 47t46 18.5t46 -18.5t19.5 -47t-19.5 -47t-46 -18.5t-46 18.5t-19.5 47z" />
    <glyph glyph-name="oslash" unicode="&#xf8;" horiz-adv-x="1667" 
d="M262 666q0 -291 201 -465l676 977q-137 88 -305 88q-248 0 -410 -173t-162 -427zM1405 666q0 289 -203 464l-676 -978q137 -86 308 -86q248 0 409.5 173t161.5 427zM164 666q0 287 192.5 485.5t477.5 198.5q193 0 354 -101l112 164l66 -47l-113 -164
q117 -96 183.5 -235.5t66.5 -300.5q0 -287 -192.5 -486.5t-476.5 -199.5q-195 0 -357 100l-110 -160l-66 45l111 162q-117 94 -182.5 235.5t-65.5 303.5z" />
    <glyph glyph-name="ugrave" unicode="&#xf9;" horiz-adv-x="1560" 
d="M834 1436l-318 163l117 48l272 -191zM780.5 -20q-276.5 0 -412 157.5t-135.5 435.5v756h95v-756q0 -510 452.5 -510t452.5 510v756h94v-756q0 -279 -135 -436t-411.5 -157z" />
    <glyph glyph-name="uacute" unicode="&#xfa;" horiz-adv-x="1560" 
d="M1016 1544l-299 -108l-70 20l357 197zM780.5 -20q-276.5 0 -412 157.5t-135.5 435.5v756h95v-756q0 -510 452.5 -510t452.5 510v756h94v-756q0 -279 -135 -436t-411.5 -157z" />
    <glyph glyph-name="ucircumflex" unicode="&#xfb;" horiz-adv-x="1560" 
d="M782 1540l-213 -104l-26 37l239 182l240 -182l-27 -37zM780.5 -20q-276.5 0 -412 157.5t-135.5 435.5v756h95v-756q0 -510 452.5 -510t452.5 510v756h94v-756q0 -279 -135 -436t-411.5 -157z" />
    <glyph glyph-name="udieresis" unicode="&#xfc;" horiz-adv-x="1560" 
d="M954 1442v108h109v-108h-109zM502 1442v108h108v-108h-108zM780.5 -20q-276.5 0 -412 157.5t-135.5 435.5v756h95v-756q0 -510 452.5 -510t452.5 510v756h94v-756q0 -279 -135 -436t-411.5 -157z" />
    <glyph glyph-name="yacute" unicode="&#xfd;" horiz-adv-x="1144" 
d="M772 1544l-299 -108l-70 20l357 197zM618 0h-92v475l-501 854h112l387 -659l51 -97q25 49 52 95l387 661h106l-502 -858v-471z" />
    <glyph glyph-name="thorn" unicode="&#xfe;" horiz-adv-x="1079" 
d="M246 0v1331h94v-325q143 8 205 8q432 0 432 -336q0 -184 -154.5 -276.5t-382.5 -92.5h-28v66h22q186 0 314.5 69.5t128.5 221t-90.5 208t-227.5 56.5t-219 -6v-924h-94z" />
    <glyph glyph-name="ydieresis" unicode="&#xff;" horiz-adv-x="1144" 
d="M293 1442v108h108v-108h-108zM745 1442v108h109v-108h-109zM618 0h-92v475l-501 854h112l387 -659q45 -90 51 -97q12 27 52 95l387 661h106l-502 -858v-471z" />
    <glyph glyph-name="dotlessi" unicode="&#x131;" horiz-adv-x="581" 
d="M246 0v1331h90v-1331h-90z" />
    <glyph glyph-name="Lslash" unicode="&#x141;" horiz-adv-x="1179" 
d="M362 0v655l-206 -125l-45 72l251 152v710h99v-651l250 154l43 -72l-293 -178v-627h674v-90h-773z" />
    <glyph glyph-name="lslash" unicode="&#x142;" horiz-adv-x="983" 
d="M246 0v567l-174 -106l-45 71l219 134v663h94v-606l221 135l43 -72l-264 -161v-539h610v-86h-704z" />
    <glyph glyph-name="OE" unicode="&#x152;" horiz-adv-x="2168" 
d="M291 733.5q0 -282.5 171 -475t440 -192.5t441 188v956q-172 188 -442 188.5t-440 -191t-170 -474zM1343 0v125q-188 -150 -440 -150q-311 0 -515 219.5t-204 539t204 537.5t515 218q252 0 440 -150v125h680v-86h-581v-538h526v-84h-526v-670h604v-86h-703z" />
    <glyph glyph-name="oe" unicode="&#x153;" horiz-adv-x="1990" 
d="M260 666q0 -258 154.5 -433.5t401.5 -175.5t403 172v871q-160 172 -405 172t-399.5 -174t-154.5 -432zM1219 -2v113q-170 -135 -402 -136q-283 0 -468 200t-185 490.5t185.5 489.5t467.5 199q231 0 402 -135v112h620v-78h-530v-491h479v-76h-479v-610h551v-78h-641z" />
    <glyph glyph-name="Scaron" unicode="&#x160;" horiz-adv-x="1120" 
d="M360 1757l213 -104l213 104l27 -37l-240 -182l-239 182zM307 1178q0 -96 67.5 -179.5t164 -148t192.5 -132t164 -161.5t68 -205q0 -186 -125 -281.5t-345.5 -95.5t-375.5 113l49 74q147 -96 323.5 -96t270.5 70.5t94 203.5q0 92 -67.5 175t-164 149.5t-192.5 136
t-163.5 166t-67.5 207.5q0 145 107.5 230t290.5 85t341 -74l-35 -80q-150 63 -297 64q-299 0 -299 -221z" />
    <glyph glyph-name="scaron" unicode="&#x161;" horiz-adv-x="993" 
d="M305 1655l213 -105l213 105l27 -37l-240 -182l-239 182zM514 1272q-111 0 -180.5 -53t-69.5 -157t92 -192q66 -63 169.5 -133.5t142.5 -101.5t94 -84q100 -100 100 -232q0 -170 -113.5 -257t-317.5 -87t-341 107l49 72q139 -94 295 -94.5t243 65t87 175.5t-88 198
q-61 61 -164.5 132.5t-144.5 103.5t-97 85q-104 104 -104 241.5t97 215.5t269.5 78t309.5 -68l-35 -76q-127 62 -293 62z" />
    <glyph glyph-name="Ydieresis" unicode="&#x178;" horiz-adv-x="1267" 
d="M805 1556v109h108v-109h-108zM352 1556v109h109v-109h-109zM682 0h-98v524l-551 940h119l426 -741l61 -115q16 39 57 111l426 745h113l-553 -944v-520z" />
    <glyph glyph-name="Zcaron" unicode="&#x17d;" horiz-adv-x="1292" 
d="M442 1757l213 -104l213 104l27 -37l-240 -182l-239 182zM1141 1464v-45l-862 -1333h878v-86h-1022v47l860 1331h-807v86h953z" />
    <glyph glyph-name="zcaron" unicode="&#x17e;" horiz-adv-x="1150" 
d="M379 1655l213 -105l213 105l26 -37l-239 -182l-240 182zM1030 1329v-45l-782 -1202h792v-82h-929v47l782 1202h-731v80h868z" />
    <glyph glyph-name="florin" unicode="&#x192;" horiz-adv-x="878" 
d="M623 1352q102 0 215 -31l-23 -72q-111 27 -215 27t-153.5 -65.5t-59.5 -239.5l-14 -250h358l-6 -78h-358l-43 -737q-12 -201 -85 -287t-219 -86q-53 0 -110 12l16 70q49 -6 97 -6q100 0 150 67.5t60 237.5l43 729h-200l6 78h199l16 258q12 203 87 288t239 85z" />
    <glyph glyph-name="circumflex" unicode="&#x2c6;" horiz-adv-x="643" 
d="M322 1198l-213 -104l-27 36l240 183l239 -183l-26 -36z" />
    <glyph glyph-name="caron" unicode="&#x2c7;" horiz-adv-x="643" 
d="M109 1313l213 -105l213 105l26 -37l-239 -182l-240 182z" />
    <glyph glyph-name="ring" unicode="&#x2da;" horiz-adv-x="501" 
d="M158 1573q0 -41 26.5 -68.5t65.5 -27.5t65.5 27.5t26.5 68.5t-26.5 69.5t-65.5 28.5t-65.5 -28.5t-26.5 -69.5zM82 1573q0 74 48 124t120 50t121 -50t49 -123t-49 -124t-121 -51t-120 50t-48 124z" />
    <glyph glyph-name="tilde" unicode="&#x2dc;" horiz-adv-x="870" 
d="M274 1231q-78 0 -155 -125l-53 35q29 45 50 73.5t67 61.5t80 33t52.5 -3t40 -12.5t30.5 -13.5t37 -18.5t32 -16.5q98 -55 141 -55q78 0 156 125l53 -35q-29 -45 -50.5 -73.5t-67.5 -61.5t-80 -33t-52 3t-39.5 12.5t-31 13.5t-91 47t-119.5 43z" />
    <glyph glyph-name="endash" unicode="&#x2013;" horiz-adv-x="968" 
d="M0 745h969v-81h-969v81z" />
    <glyph glyph-name="emdash" unicode="&#x2014;" horiz-adv-x="1294" 
d="M0 745h1294v-81h-1294v81z" />
    <glyph glyph-name="quoteleft" unicode="&#x2018;" horiz-adv-x="247" 
d="M182 1464v-133l25 -125h-47l-86 158v100h108z" />
    <glyph glyph-name="quoteright" unicode="&#x2019;" horiz-adv-x="247" 
d="M66 1464h108v-100l-86 -158h-47l25 125v133z" />
    <glyph glyph-name="quotesinglbase" unicode="&#x201a;" horiz-adv-x="247" 
d="M66 109h108v-101l-86 -158h-47l25 125v134z" />
    <glyph glyph-name="quotedblleft" unicode="&#x201c;" horiz-adv-x="501" 
d="M182 1464v-133l25 -125h-47l-86 158v100h108zM436 1464v-133l25 -125h-47l-86 158v100h108z" />
    <glyph glyph-name="quotedblright" unicode="&#x201d;" horiz-adv-x="501" 
d="M319 1464h109v-100l-86 -158h-47l24 125v133zM66 1464h108v-100l-86 -158h-47l25 125v133z" />
    <glyph glyph-name="quotedblbase" unicode="&#x201e;" horiz-adv-x="501" 
d="M319 109h109v-101l-86 -158h-47l24 125v134zM66 109h108v-101l-86 -158h-47l25 125v134z" />
    <glyph glyph-name="dagger" unicode="&#x2020;" horiz-adv-x="970" 
d="M143 1020h308v444h90v-444h286v-86h-286v-1401h-90v1401h-308v86z" />
    <glyph glyph-name="daggerdbl" unicode="&#x2021;" horiz-adv-x="970" 
d="M143 1020h308v444h90v-444h286v-86h-286v-506h286v-86h-286v-809h-90v809h-308v86h308v506h-308v86z" />
    <glyph glyph-name="bullet" unicode="&#x2022;" horiz-adv-x="499" 
d="M164 633v172h172v-172h-172z" />
    <glyph glyph-name="ellipsis" unicode="&#x2026;" horiz-adv-x="694" 
d="M524 0v109h109v-109h-109zM293 0v109h108v-109h-108zM61 0v109h109v-109h-109z" />
    <glyph glyph-name="perthousand" unicode="&#x2030;" horiz-adv-x="1980" 
d="M1444 314.5q0 -117.5 47 -186.5t118.5 -69t118 69t46.5 186.5t-46.5 185t-118 67.5t-118.5 -67.5t-47 -185zM1360 315.5q0 151.5 69.5 239.5t180 88t179.5 -88t69 -239.5t-73 -243.5t-177.5 -92t-176 92t-71.5 243.5zM184 -2l936 1501l72 -43l-934 -1499zM823 314.5
q0 -117.5 47.5 -186.5t119 -69t117.5 69t46 186.5t-46 185t-117.5 67.5t-119 -67.5t-47.5 -185zM739 315.5q0 151.5 70 239.5t180.5 88t179 -88t68.5 -239.5t-72.5 -243.5t-177 -92t-176.5 92t-72 243.5zM225 1149q0 -117 48.5 -186.5t119 -69.5t117.5 69.5t47 186.5
t-47 184.5t-117.5 67.5t-119 -67.5t-48.5 -184.5zM143 1148.5q0 151.5 70 240t180.5 88.5t179 -88.5t68.5 -239t-72.5 -242.5t-177 -92t-176.5 91t-72 242.5z" />
    <glyph glyph-name="guilsinglleft" unicode="&#x2039;" horiz-adv-x="598" 
d="M436 299l-334 381l334 381l60 -49l-291 -332l291 -332z" />
    <glyph glyph-name="guilsinglright" unicode="&#x203a;" horiz-adv-x="598" 
d="M496 680l-334 -381l-60 49l291 332l-291 332l60 49z" />
    <glyph glyph-name="Euro" unicode="&#x20ac;" horiz-adv-x="1073" 
d="M743 1489q129 0 215 -33v-92q-100 35 -215 35q-356 0 -434 -426h500l-23 -86h-489q-6 -74 -6 -163t8 -157h510l-23 -86h-475q80 -416 432 -415q139 0 215 32v-86q-80 -37 -227 -37q-426 0 -524 506h-178l22 86h142q-17 146 -3 320h-161l22 86h152q43 248 179 382t361 134
z" />
    <glyph glyph-name="trademark" unicode="&#x2122;" horiz-adv-x="1470" 
d="M309 1395h-207v59h480v-59h-209v-576h-64v576zM973 850h-37l-191 461q0 -12 -6 -47l-67 -445h-66l103 639h45l192 -461q8 -29 15 -43q0 8 16 45l213 459h41l96 -639h-65l-64 445q-8 41 -8 55l-23 -55z" />
    <glyph glyph-name="minus" unicode="&#x2212;" horiz-adv-x="1052" 
d="M143 750h766v-91h-766v91z" />
    <glyph glyph-name="fi" unicode="&#xfb01;" horiz-adv-x="1632" 
d="M1292 0v1329h94v-1329h-94zM246 0v1329h682v-82h-588v-483h537v-80h-537v-684h-94z" />
    <glyph glyph-name="fl" unicode="&#xfb02;" horiz-adv-x="2029" 
d="M1292 0v1329h94v-1243h611v-86h-705zM246 0v1329h682v-82h-588v-483h537v-80h-537v-684h-94z" />
    </font>
</defs>
</svg>
